<svg width="22" height="21" viewBox="0 0 22 21" fill="none" xmlns="http://www.w3.org/2000/svg">
<path d="M21.46 5.56999L11.357 0.114994C11.134 -0.0050061 10.867 -0.0050061 10.644 0.114994L0.542993 5.56999C0.178993 5.76699 0.0429934 6.22199 0.239993 6.58699C0.374993 6.83699 0.633993 6.97999 0.899993 6.97999C1.01999 6.97999 1.14299 6.94999 1.25599 6.88999L2.07099 6.44999L3.69999 17.963C3.91399 19.178 5.00799 20.025 6.35799 20.025H15.64C16.992 20.025 18.085 19.177 18.303 17.938L19.929 6.44799L20.747 6.88999C21.111 7.08299 21.567 6.94999 21.764 6.58599C21.96 6.22299 21.824 5.76799 21.46 5.56999ZM16.822 17.703C16.715 18.309 16.119 18.525 15.642 18.525H6.35999C5.87999 18.525 5.28499 18.309 5.18199 17.727L3.47999 5.68999L11 1.62799L18.522 5.68799L16.822 17.703Z" fill="#44444F"/>
</svg>
