<svg width="22" height="20" viewBox="0 0 22 20" fill="none" xmlns="http://www.w3.org/2000/svg">
<path d="M11 19.6381H10.986C8.40295 19.5901 0.949951 12.8561 0.949951 6.47806C0.949951 3.41406 3.47495 0.72406 6.35295 0.72406C8.64295 0.72406 10.1829 2.30406 10.9989 3.45406C11.8129 2.30606 13.3529 0.72406 15.6439 0.72406C18.5239 0.72406 21.0479 3.41406 21.0479 6.47906C21.0479 12.8551 13.5939 19.5891 11.0109 19.6361H11V19.6381ZM6.35395 2.22506C4.27395 2.22506 2.45095 4.21306 2.45095 6.48006C2.45095 12.2201 9.48495 18.0761 11.001 18.1381C12.519 18.0761 19.5509 12.2211 19.5509 6.48006C19.5509 4.21306 17.728 2.22506 15.648 2.22506C13.12 2.22506 11.708 5.16106 11.696 5.19006C11.466 5.75206 10.54 5.75206 10.309 5.19006C10.295 5.16006 8.88395 2.22506 6.35495 2.22506H6.35395Z" fill="#6C757D"/>
</svg>
