<svg width="16" height="16" viewBox="0 0 16 16" fill="none" xmlns="http://www.w3.org/2000/svg">
<path d="M8.00005 14.4253H7.99072C6.26872 14.3933 1.30005 9.90398 1.30005 5.65198C1.30005 3.60931 2.98338 1.81598 4.90205 1.81598C6.42872 1.81598 7.45538 2.86931 7.99938 3.63598C8.54205 2.87065 9.56871 1.81598 11.096 1.81598C13.016 1.81598 14.6987 3.60931 14.6987 5.65265C14.6987 9.90331 9.72938 14.3926 8.00738 14.424H8.00005V14.4253ZM4.90272 2.81665C3.51605 2.81665 2.30072 4.14198 2.30072 5.65331C2.30072 9.47998 6.99005 13.384 8.00072 13.4253C9.01272 13.384 13.7007 9.48065 13.7007 5.65331C13.7007 4.14198 12.4854 2.81665 11.0987 2.81665C9.41338 2.81665 8.47205 4.77398 8.46405 4.79331C8.31072 5.16798 7.69338 5.16798 7.53938 4.79331C7.53005 4.77331 6.58938 2.81665 4.90338 2.81665H4.90272Z" fill="#6C757D"/>
</svg>
