<svg width="24" height="24" viewBox="0 0 24 24" fill="none" xmlns="http://www.w3.org/2000/svg">
<path d="M11.9999 11.816C13.3549 11.816 14.8719 11.666 15.8399 10.56C16.6539 9.63001 16.9179 8.19201 16.6459 6.16801C16.2659 3.34301 14.5289 1.65601 11.9999 1.65601C9.47091 1.65601 7.73391 3.34301 7.35391 6.17001C7.08191 8.19201 7.3459 9.63001 8.1599 10.56C9.1279 11.667 10.6449 11.816 11.9999 11.816V11.816ZM8.83991 6.36801C9.00191 5.16801 9.62691 3.15601 11.9999 3.15601C14.3729 3.15601 14.9979 5.16901 15.1599 6.36801C15.3669 7.91801 15.2169 8.99501 14.7099 9.57301C14.2549 10.093 13.4439 10.316 11.9999 10.316C10.5559 10.316 9.74491 10.093 9.28991 9.57301C8.78291 8.99501 8.63291 7.91701 8.83991 6.36801ZM20.2799 19.236C19.4029 15.71 15.9979 13.246 11.9999 13.246C8.00191 13.246 4.59691 15.71 3.71991 19.236C3.54791 19.928 3.6919 20.636 4.1149 21.176C4.5229 21.696 5.15491 21.996 5.84791 21.996H18.1519C18.8449 21.996 19.4769 21.696 19.8849 21.176C20.3089 20.636 20.4519 19.929 20.2789 19.236H20.2799ZM18.7039 20.252C18.5779 20.412 18.3879 20.498 18.1519 20.498H5.84791C5.61291 20.498 5.42191 20.413 5.29591 20.252C5.15891 20.078 5.11591 19.84 5.17591 19.598C5.88591 16.743 8.69291 14.748 11.9999 14.748C15.3069 14.748 18.1139 16.742 18.8239 19.598C18.8839 19.84 18.8409 20.078 18.7039 20.252V20.252Z" fill="#44444F"/>
</svg>
