<svg width="24" height="22" viewBox="0 0 24 22" fill="none" xmlns="http://www.w3.org/2000/svg">
<path d="M22.58 6.34998L12.475 0.896978C12.178 0.736978 11.821 0.736978 11.525 0.896978L1.42496 6.34998C0.938957 6.61398 0.757957 7.21998 1.01996 7.70598C1.19996 8.04098 1.54496 8.23098 1.89996 8.23098C2.05996 8.23098 2.22396 8.19298 2.37496 8.11098L3.10896 7.71498L4.69896 18.965C4.91496 20.179 6.00896 21.027 7.35896 21.027H16.641C17.991 21.027 19.085 20.179 19.303 18.939L20.891 7.71398L21.628 8.11198C22.113 8.37498 22.72 8.19398 22.982 7.70798C23.245 7.22198 23.062 6.61498 22.578 6.35298L22.58 6.34998ZM12 14.435C10.205 14.435 8.74996 12.98 8.74996 11.185C8.74996 9.38998 10.205 7.93498 12 7.93498C13.795 7.93498 15.25 9.38998 15.25 11.185C15.25 12.98 13.795 14.435 12 14.435Z" fill="#FF6600"/>
</svg>
