<svg width="18" height="18" viewBox="0 0 18 18" fill="none" xmlns="http://www.w3.org/2000/svg">
<path d="M3 0C2.20435 0 1.44129 0.316071 0.87868 0.87868C0.316071 1.44129 0 2.20435 0 3V15C0 15.7956 0.316071 16.5587 0.87868 17.1213C1.44129 17.6839 2.20435 18 3 18H8C8.26522 18 8.51957 17.8946 8.70711 17.7071C8.89464 17.5196 9 17.2652 9 17C9 16.7348 8.89464 16.4804 8.70711 16.2929C8.51957 16.1054 8.26522 16 8 16H3C2.73478 16 2.48043 15.8946 2.29289 15.7071C2.10536 15.5196 2 15.2652 2 15V3C2 2.73478 2.10536 2.48043 2.29289 2.29289C2.48043 2.10536 2.73478 2 3 2H8C8.26522 2 8.51957 1.89464 8.70711 1.70711C8.89464 1.51957 9 1.26522 9 1C9 0.734784 8.89464 0.48043 8.70711 0.292893C8.51957 0.105357 8.26522 0 8 0H3Z" fill="#44444F"/>
<path d="M12.293 4.293C12.4805 4.10553 12.7348 4.00021 13 4.00021C13.2652 4.00021 13.5195 4.10553 13.707 4.293L17.707 8.293C17.8945 8.48053 17.9998 8.73484 17.9998 9C17.9998 9.26516 17.8945 9.51947 17.707 9.707L13.707 13.707C13.5184 13.8892 13.2658 13.99 13.0036 13.9877C12.7414 13.9854 12.4906 13.8802 12.3052 13.6948C12.1198 13.5094 12.0146 13.2586 12.0123 12.9964C12.01 12.7342 12.1108 12.4816 12.293 12.293L14.586 10H7C6.73478 10 6.48043 9.89464 6.29289 9.70711C6.10536 9.51957 6 9.26522 6 9C6 8.73478 6.10536 8.48043 6.29289 8.29289C6.48043 8.10536 6.73478 8 7 8H14.586L12.293 5.707C12.1055 5.51947 12.0002 5.26516 12.0002 5C12.0002 4.73484 12.1055 4.48053 12.293 4.293Z" fill="#44444F"/>
</svg>
