<svg width="16" height="16" viewBox="0 0 16 16" fill="none" xmlns="http://www.w3.org/2000/svg">
<path d="M9.36413 1.49464L6.59879 1.48798H6.59746C3.68146 1.48798 1.39746 3.77264 1.39746 6.68931C1.39746 9.42131 3.52146 11.4933 6.37413 11.6026V14.1546C6.37413 14.2266 6.40346 14.3453 6.45413 14.4233C6.54879 14.5733 6.71013 14.6546 6.87546 14.6546C6.96746 14.6546 7.06013 14.6293 7.14346 14.576C7.31946 14.464 11.4588 11.816 12.5355 10.9053C13.8035 9.83198 14.5621 8.25864 14.5641 6.69731V6.68598C14.5601 3.77464 12.2775 1.49464 9.36413 1.49398V1.49464ZM11.8888 10.1426C11.1328 10.7826 8.64746 12.4126 7.37413 13.238V11.1133C7.37413 10.8373 7.15079 10.6133 6.87413 10.6133H6.61013C4.17013 10.6133 2.39813 8.96264 2.39813 6.68931C2.39813 4.33331 4.24346 2.48798 6.59813 2.48798L9.36279 2.49464H9.36413C11.7188 2.49464 13.5641 4.33864 13.5655 6.69198C13.5635 7.96531 12.9375 9.25464 11.8895 10.1426H11.8888Z" fill="#6C757D"/>
</svg>
