<svg width="17" height="21" viewBox="0 0 17 21" fill="none" xmlns="http://www.w3.org/2000/svg">
<path d="M8.22501 10.165C6.86901 10.165 5.35301 10.015 4.38501 8.909C3.57101 7.979 3.30801 6.541 3.58001 4.517C3.96001 1.691 5.69601 0.0039978 8.22601 0.0039978C10.756 0.0039978 12.493 1.691 12.872 4.517C13.144 6.541 12.88 7.977 12.066 8.909C11.096 10.015 9.58101 10.164 8.22601 10.164L8.22501 10.165ZM14.074 20.015H2.37601C1.71301 20.015 1.12601 19.735 0.72601 19.229C0.30401 18.695 0.15001 17.959 0.31601 17.261C1.15001 13.731 4.40201 11.264 8.22401 11.264C12.046 11.264 15.298 13.73 16.134 17.261C16.298 17.959 16.144 18.695 15.722 19.228C15.322 19.733 14.737 20.013 14.074 20.013V20.015Z" fill="#FF6600"/>
</svg>
